<svg width="16" height="16" viewBox="0 0 16 16" fill="none" xmlns="http://www.w3.org/2000/svg">
<path d="M9.81332 5.86004L6.95332 8.72671L5.85332 7.62671C5.79355 7.55692 5.72001 7.50024 5.6373 7.46022C5.55459 7.42021 5.4645 7.39772 5.37268 7.39418C5.28087 7.39063 5.18932 7.4061 5.10377 7.43962C5.01822 7.47313 4.94052 7.52397 4.87555 7.58894C4.81058 7.65391 4.75974 7.73161 4.72622 7.81716C4.69271 7.90271 4.67724 7.99426 4.68078 8.08608C4.68433 8.17789 4.70682 8.26798 4.74683 8.35069C4.78685 8.4334 4.84353 8.50694 4.91332 8.56671L6.47998 10.14C6.54228 10.2018 6.61615 10.2507 6.69738 10.2839C6.7786 10.3171 6.86558 10.3339 6.95332 10.3334C7.12821 10.3326 7.29581 10.2632 7.41998 10.14L10.7533 6.80671C10.8158 6.74473 10.8654 6.671 10.8992 6.58976C10.9331 6.50852 10.9505 6.42138 10.9505 6.33337C10.9505 6.24537 10.9331 6.15823 10.8992 6.07699C10.8654 5.99575 10.8158 5.92202 10.7533 5.86004C10.6284 5.73587 10.4594 5.66618 10.2833 5.66618C10.1072 5.66618 9.93822 5.73587 9.81332 5.86004ZM7.99998 1.33337C6.68144 1.33337 5.39251 1.72437 4.29618 2.45691C3.19985 3.18945 2.34537 4.23064 1.84079 5.44882C1.3362 6.66699 1.20418 8.00744 1.46141 9.30064C1.71865 10.5938 2.35359 11.7817 3.28594 12.7141C4.21829 13.6464 5.40617 14.2814 6.69938 14.5386C7.99259 14.7958 9.33303 14.6638 10.5512 14.1592C11.7694 13.6547 12.8106 12.8002 13.5431 11.7038C14.2757 10.6075 14.6666 9.31858 14.6666 8.00004C14.6666 7.12456 14.4942 6.25766 14.1592 5.44882C13.8241 4.63998 13.3331 3.90505 12.714 3.286C12.095 2.66694 11.36 2.17588 10.5512 1.84084C9.74237 1.50581 8.87546 1.33337 7.99998 1.33337ZM7.99998 13.3334C6.94515 13.3334 5.914 13.0206 5.03694 12.4345C4.15988 11.8485 3.47629 11.0156 3.07263 10.041C2.66896 9.06648 2.56334 7.99412 2.76913 6.95956C2.97492 5.92499 3.48287 4.97468 4.22875 4.2288C4.97463 3.48292 5.92494 2.97497 6.9595 2.76919C7.99407 2.5634 9.06642 2.66902 10.041 3.07268C11.0155 3.47635 11.8485 4.15994 12.4345 5.037C13.0205 5.91406 13.3333 6.94521 13.3333 8.00004C13.3333 9.41453 12.7714 10.7711 11.7712 11.7713C10.771 12.7715 9.41447 13.3334 7.99998 13.3334Z" fill="#06826B"/>
</svg>
