<svg width="16" height="16" viewBox="0 0 16 16" fill="none" xmlns="http://www.w3.org/2000/svg">
<path d="M7.99998 9.33337C7.83516 9.33337 7.67405 9.38225 7.53701 9.47382C7.39997 9.56538 7.29316 9.69553 7.23008 9.84781C7.16701 10.0001 7.15051 10.1676 7.18266 10.3293C7.21482 10.4909 7.29418 10.6394 7.41073 10.756C7.52727 10.8725 7.67576 10.9519 7.83741 10.984C7.99906 11.0162 8.16661 10.9997 8.31889 10.9366C8.47116 10.8735 8.60131 10.7667 8.69287 10.6297C8.78444 10.4926 8.83332 10.3315 8.83332 10.1667C8.83332 9.94569 8.74552 9.73373 8.58924 9.57745C8.43296 9.42117 8.221 9.33337 7.99998 9.33337ZM7.99998 8.33337C8.17679 8.33337 8.34636 8.26314 8.47139 8.13811C8.59641 8.01309 8.66665 7.84352 8.66665 7.66671V5.66671C8.66665 5.4899 8.59641 5.32033 8.47139 5.1953C8.34636 5.07028 8.17679 5.00004 7.99998 5.00004C7.82317 5.00004 7.6536 5.07028 7.52858 5.1953C7.40355 5.32033 7.33332 5.4899 7.33332 5.66671V7.66671C7.33332 7.84352 7.40355 8.01309 7.52858 8.13811C7.6536 8.26314 7.82317 8.33337 7.99998 8.33337ZM7.99998 1.33337C6.68144 1.33337 5.39251 1.72437 4.29618 2.45691C3.19985 3.18945 2.34537 4.23064 1.84079 5.44882C1.3362 6.66699 1.20418 8.00744 1.46141 9.30064C1.71865 10.5938 2.35359 11.7817 3.28594 12.7141C4.21829 13.6464 5.40617 14.2814 6.69938 14.5386C7.99259 14.7958 9.33303 14.6638 10.5512 14.1592C11.7694 13.6547 12.8106 12.8002 13.5431 11.7038C14.2757 10.6075 14.6666 9.31858 14.6666 8.00004C14.6647 6.23253 13.9617 4.53796 12.7119 3.28814C11.4621 2.03832 9.7675 1.33532 7.99998 1.33337ZM7.99998 13.3334C6.94515 13.3334 5.914 13.0206 5.03694 12.4345C4.15988 11.8485 3.47629 11.0156 3.07263 10.041C2.66896 9.06648 2.56334 7.99412 2.76913 6.95956C2.97492 5.92499 3.48287 4.97468 4.22875 4.2288C4.97463 3.48292 5.92494 2.97497 6.9595 2.76919C7.99407 2.5634 9.06642 2.66902 10.041 3.07268C11.0155 3.47635 11.8485 4.15994 12.4345 5.037C13.0205 5.91406 13.3333 6.94521 13.3333 8.00004C13.3316 9.41399 12.7691 10.7695 11.7693 11.7693C10.7695 12.7691 9.41393 13.3316 7.99998 13.3334Z" fill="#CD3232"/>
</svg>
